<svg width="128" height="128" viewBox="0 0 128 128" fill="none" xmlns="http://www.w3.org/2000/svg">
<g clip-path="url(#clip0_11_27)">
<path d="M42.5 44.06C41.4211 44.059 40.3661 44.378 39.4685 44.9766C38.5709 45.5751 37.8709 46.4265 37.4571 47.4228C37.0433 48.4192 36.9343 49.516 37.1438 50.5743C37.3533 51.6327 37.872 52.6051 38.6342 53.3687C39.3964 54.1323 40.3679 54.6528 41.4259 54.8642C42.4838 55.0757 43.5807 54.9686 44.5779 54.5567C45.575 54.1447 46.4276 53.4463 47.0279 52.5498C47.6281 51.6533 47.949 50.5989 47.95 49.52C47.9505 48.0735 47.3768 46.6859 46.3549 45.6621C45.333 44.6384 43.9465 44.0621 42.5 44.06V44.06ZM42.5 52.97C41.8162 52.971 41.1475 52.7691 40.5786 52.3898C40.0097 52.0106 39.5661 51.471 39.3039 50.8395C39.0418 50.208 38.973 49.5129 39.1061 48.8422C39.2393 48.1715 39.5684 47.5554 40.0519 47.0719C40.5354 46.5885 41.1515 46.2593 41.8222 46.1261C42.4928 45.993 43.1879 46.0618 43.8195 46.324C44.451 46.5861 44.9905 47.0297 45.3698 47.5986C45.7491 48.1676 45.951 48.8362 45.95 49.52C45.9481 50.4344 45.5841 51.3109 44.9375 51.9575C44.2909 52.6041 43.4144 52.9681 42.5 52.97V52.97Z" fill="#8BFF55"/>
<path d="M87.5 44.06C86.4211 44.059 85.3661 44.378 84.4685 44.9766C83.5709 45.5751 82.8709 46.4265 82.4571 47.4228C82.0433 48.4192 81.9343 49.516 82.1438 50.5743C82.3533 51.6327 82.872 52.6051 83.6342 53.3687C84.3964 54.1323 85.3679 54.6528 86.4259 54.8642C87.4838 55.0757 88.5807 54.9686 89.5779 54.5567C90.575 54.1447 91.4276 53.4463 92.0279 52.5498C92.6281 51.6533 92.949 50.5989 92.95 49.52C92.9505 48.0735 92.3768 46.6859 91.3549 45.6621C90.333 44.6384 88.9465 44.0621 87.5 44.06V44.06ZM87.5 52.97C86.8162 52.971 86.1475 52.7691 85.5786 52.3898C85.0097 52.0106 84.5661 51.471 84.3039 50.8395C84.0418 50.208 83.973 49.5129 84.1061 48.8422C84.2393 48.1715 84.5684 47.5554 85.0519 47.0719C85.5354 46.5885 86.1515 46.2593 86.8222 46.1261C87.4928 45.993 88.1879 46.0618 88.8195 46.324C89.451 46.5861 89.9905 47.0297 90.3698 47.5986C90.7491 48.1676 90.951 48.8362 90.95 49.52C90.9481 50.4344 90.5841 51.3109 89.9375 51.9575C89.2909 52.6041 88.4144 52.9681 87.5 52.97V52.97Z" fill="#8BFF55"/>
<path d="M109.97 62.04H98.15C96.8239 62.04 95.5521 62.5668 94.6144 63.5045C93.6768 64.4422 93.15 65.7139 93.15 67.04V79.07C93.15 79.3352 93.0446 79.5896 92.8571 79.7771C92.6695 79.9647 92.4152 80.07 92.15 80.07H89.5C89.2348 80.07 88.9804 79.9647 88.7929 79.7771C88.6053 79.5896 88.5 79.3352 88.5 79.07V52.8C88.1768 52.905 87.8397 52.961 87.5 52.966C86.5837 52.966 85.7049 52.602 85.0569 51.9541C84.409 51.3061 84.045 50.4273 84.045 49.511C84.045 48.5947 84.409 47.7159 85.0569 47.068C85.7049 46.42 86.5837 46.056 87.5 46.056C87.8397 46.061 88.1768 46.1169 88.5 46.222V44.16L88.454 44.153C91.1773 42.7377 93.4606 40.6029 95.0555 37.9807C96.6504 35.3585 97.4958 32.3492 97.5 29.28V16.62C97.4957 12.1683 95.7254 7.90019 92.5776 4.75237C89.4298 1.60456 85.1617 -0.165747 80.71 -0.169983H49.16C44.7095 -0.164686 40.443 1.60628 37.297 4.75415C34.151 7.90203 32.3826 12.1696 32.38 16.62V29.28C32.3842 32.4175 33.2679 35.4909 34.9306 38.1515C36.5934 40.8121 38.9687 42.9532 41.787 44.332C41.6459 44.4765 41.5527 44.6608 41.52 44.86C41.5035 44.9082 41.4967 44.9592 41.5 45.01V46.226C41.8231 46.1209 42.1602 46.065 42.5 46.06C43.4163 46.06 44.2951 46.424 44.943 47.072C45.591 47.7199 45.955 48.5987 45.955 49.515C45.955 50.4313 45.591 51.3101 44.943 51.9581C44.2951 52.606 43.4163 52.97 42.5 52.97C42.1602 52.965 41.8231 52.909 41.5 52.804V70.17C41.5 70.4352 41.3946 70.6896 41.2071 70.8771C41.0195 71.0647 40.7652 71.17 40.5 71.17H37.85C37.5848 71.17 37.3304 71.0647 37.1429 70.8771C36.9553 70.6896 36.85 70.4352 36.85 70.17V60.03C36.85 58.7039 36.3232 57.4322 35.3855 56.4945C34.4478 55.5568 33.1761 55.03 31.85 55.03H17.85C17.5848 55.03 17.3304 55.1354 17.1429 55.3229C16.9553 55.5104 16.85 55.7648 16.85 56.03C16.8518 58.1114 17.6795 60.107 19.1512 61.5788C20.623 63.0505 22.6186 63.8782 24.7 63.88H27C27.2652 63.88 27.5195 63.9854 27.7071 64.1729C27.8946 64.3604 28 64.6148 28 64.88V75.02C28 75.6766 28.1293 76.3268 28.3806 76.9334C28.6319 77.5401 29.0001 78.0913 29.4644 78.5555C29.9287 79.0198 30.4799 79.3881 31.0866 79.6394C31.6932 79.8907 32.3434 80.02 33 80.02H41.5V89H33C31.6739 89 30.4021 89.5268 29.4644 90.4645C28.5268 91.4022 28 92.6739 28 94V116.98C28 117.245 28.1053 117.5 28.2929 117.687C28.4804 117.875 28.7348 117.98 29 117.98C31.0814 117.978 33.077 117.151 34.5487 115.679C36.0205 114.207 36.8481 112.211 36.85 110.13V98.85C36.85 98.5848 36.9553 98.3304 37.1429 98.1429C37.3304 97.9554 37.5848 97.85 37.85 97.85H41.5V125.96C41.5 126.225 41.6053 126.48 41.7929 126.667C41.9804 126.855 42.2348 126.96 42.5 126.96C44.5814 126.958 46.577 126.131 48.0487 124.659C49.5205 123.187 50.3481 121.191 50.35 119.11V97.85H54.22V125.96C54.22 126.225 54.3253 126.48 54.5129 126.667C54.7004 126.855 54.9548 126.96 55.22 126.96C57.3014 126.958 59.297 126.131 60.7687 124.659C62.2405 123.187 63.0681 121.191 63.07 119.11V65.85C63.07 65.3381 63.2733 64.8472 63.6353 64.4853C63.9972 64.1234 64.4881 63.92 65 63.92C65.5118 63.92 66.0027 64.1234 66.3647 64.4853C66.7266 64.8472 66.93 65.3381 66.93 65.85V119.11C66.9318 121.191 67.7595 123.187 69.2312 124.659C70.703 126.131 72.6986 126.958 74.78 126.96C75.0452 126.96 75.2995 126.855 75.4871 126.667C75.6746 126.48 75.78 126.225 75.78 125.96V104.48H79.65V119.11C79.6518 121.191 80.4795 123.187 81.9512 124.659C83.423 126.131 85.4186 126.958 87.5 126.96C87.7652 126.96 88.0195 126.855 88.2071 126.667C88.3946 126.48 88.5 126.225 88.5 125.96V104.48H92.15C92.4152 104.48 92.6695 104.585 92.8571 104.773C93.0446 104.96 93.15 105.215 93.15 105.48V110.13C93.1518 112.211 93.9795 114.207 95.4512 115.679C96.923 117.151 98.9186 117.978 101 117.98C101.265 117.98 101.52 117.875 101.707 117.687C101.895 117.5 102 117.245 102 116.98V100.63C102 99.3039 101.473 98.0322 100.536 97.0945C99.5978 96.1568 98.3261 95.63 97 95.63H88.5V88.92H97C98.3261 88.92 99.5978 88.3932 100.536 87.4556C101.473 86.5179 102 85.2461 102 83.92V71.89C102 71.6248 102.105 71.3704 102.293 71.1829C102.48 70.9954 102.735 70.89 103 70.89H103.12C105.201 70.8882 107.197 70.0605 108.669 68.5888C110.14 67.117 110.968 65.1214 110.97 63.04C110.97 62.7748 110.865 62.5204 110.677 62.3329C110.49 62.1454 110.235 62.04 109.97 62.04ZM40.5 22.88C41.0637 22.88 41.6147 23.0472 42.0833 23.3603C42.552 23.6735 42.9173 24.1186 43.133 24.6394C43.3487 25.1601 43.4052 25.7332 43.2952 26.286C43.1852 26.8389 42.9138 27.3467 42.5152 27.7453C42.1167 28.1439 41.6088 28.4153 41.056 28.5253C40.5031 28.6352 39.9301 28.5788 39.4093 28.3631C38.8886 28.1474 38.4434 27.7821 38.1303 27.3134C37.8171 26.8447 37.65 26.2937 37.65 25.73C37.6498 25.3557 37.7235 24.9851 37.8667 24.6392C38.0098 24.2934 38.2198 23.9791 38.4844 23.7145C38.7491 23.4498 39.0633 23.2399 39.4092 23.0967C39.755 22.9535 40.1257 22.8799 40.5 22.88V22.88ZM40.28 37.15C39.523 37.151 38.7828 36.9274 38.153 36.5075C37.5233 36.0876 37.0322 35.4902 36.7421 34.7911C36.452 34.092 36.3758 33.3225 36.5232 32.58C36.6707 31.8376 37.0351 31.1556 37.5703 30.6203C38.1055 30.0851 38.7875 29.7207 39.53 29.5733C40.2724 29.4258 41.0419 29.502 41.741 29.7921C42.4402 30.0823 43.0375 30.5733 43.4574 31.2031C43.8773 31.8329 44.101 32.5731 44.1 33.33C44.1 34.3431 43.6975 35.3148 42.9811 36.0312C42.2647 36.7476 41.2931 37.15 40.28 37.15ZM44.49 21.48C44.492 20.7249 44.7177 19.9873 45.1386 19.3605C45.5596 18.7336 46.1569 18.2455 46.855 17.9579C47.5532 17.6703 48.321 17.5961 49.0613 17.7446C49.8017 17.8932 50.4814 18.2578 51.0146 18.7924C51.5479 19.327 51.9107 20.0077 52.0573 20.7484C52.2039 21.4892 52.1276 22.2567 51.8382 22.9542C51.5488 23.6516 51.0592 24.2476 50.4312 24.6669C49.8032 25.0862 49.0651 25.31 48.31 25.31C47.2956 25.3084 46.3234 24.9041 45.607 24.1859C44.8907 23.4677 44.4889 22.4944 44.49 21.48V21.48ZM45.12 30.5C45.12 30.0847 45.2431 29.6787 45.4739 29.3333C45.7046 28.988 46.0326 28.7188 46.4163 28.5599C46.8001 28.4009 47.2223 28.3593 47.6297 28.4404C48.037 28.5214 48.4112 28.7214 48.7049 29.0151C48.9986 29.3088 49.1986 29.683 49.2796 30.0903C49.3607 30.4977 49.3191 30.9199 49.1601 31.3037C49.0012 31.6874 48.732 32.0154 48.3867 32.2461C48.0413 32.4769 47.6353 32.6 47.22 32.6C46.663 32.6 46.1289 32.3788 45.7351 31.9849C45.3412 31.5911 45.12 31.057 45.12 30.5V30.5ZM48.8 40.85C48.2367 40.848 47.6867 40.6792 47.2193 40.3648C46.752 40.0505 46.3882 39.6047 46.1741 39.0838C45.9599 38.5628 45.9049 37.9901 46.016 37.4379C46.1271 36.8857 46.3993 36.3788 46.7983 35.9813C47.1972 35.5837 47.7051 35.3132 48.2576 35.2041C48.8102 35.0949 49.3827 35.1519 49.9029 35.3679C50.4231 35.5839 50.8676 35.9492 51.1804 36.4177C51.4931 36.8861 51.66 37.4368 51.66 38C51.6593 38.3749 51.5848 38.7461 51.4407 39.0922C51.2967 39.4383 51.0858 39.7527 50.8202 40.0173C50.5547 40.282 50.2396 40.4917 49.8929 40.6346C49.5463 40.7775 49.1749 40.8507 48.8 40.85V40.85ZM54.22 88C54.22 88.2652 54.1146 88.5196 53.9271 88.7071C53.7395 88.8947 53.4852 89 53.22 89H50.35V65.85C50.35 65.3368 50.5538 64.8446 50.9167 64.4818C51.2796 64.1189 51.7718 63.915 52.285 63.915C52.7982 63.915 53.2903 64.1189 53.6532 64.4818C54.0161 64.8446 54.22 65.3368 54.22 65.85V88ZM75.58 55.85C75.1953 55.849 74.8195 55.734 74.5002 55.5194C74.1809 55.3049 73.9324 55.0005 73.7861 54.6447C73.6398 54.2889 73.6023 53.8978 73.6783 53.5207C73.7544 53.1436 73.9405 52.7975 74.2132 52.5262C74.4859 52.2549 74.8329 52.0705 75.2104 51.9964C75.5879 51.9223 75.9789 51.9619 76.3339 52.11C76.6889 52.2581 76.9921 52.5082 77.205 52.8286C77.4179 53.149 77.531 53.5253 77.53 53.91C77.5297 54.1655 77.479 54.4185 77.3808 54.6544C77.2826 54.8903 77.1388 55.1045 76.9576 55.2848C76.7765 55.465 76.5615 55.6077 76.3251 55.7047C76.0887 55.8017 75.8355 55.8511 75.58 55.85V55.85ZM79.65 95.63H76.78C76.5148 95.63 76.2604 95.5247 76.0729 95.3371C75.8853 95.1496 75.78 94.8952 75.78 94.63V65.85C75.78 65.3368 75.9838 64.8446 76.3467 64.4818C76.7096 64.1189 77.2018 63.915 77.715 63.915C78.2282 63.915 78.7203 64.1189 79.0832 64.4818C79.4461 64.8446 79.65 65.3368 79.65 65.85V95.63ZM77.86 52.17C77.3867 52.169 76.9244 52.0278 76.5313 51.7643C76.1382 51.5008 75.832 51.1267 75.6513 50.6892C75.4707 50.2518 75.4237 49.7707 75.5162 49.3066C75.6088 48.8424 75.8368 48.4161 76.1715 48.0815C76.5061 47.7469 76.9324 47.5189 77.3965 47.4263C77.8606 47.3337 78.3418 47.3807 78.7792 47.5614C79.2166 47.742 79.5907 48.0482 79.8543 48.4413C80.1178 48.8344 80.259 49.2968 80.26 49.77C80.26 50.4065 80.0071 51.017 79.557 51.4671C79.1069 51.9172 78.4965 52.17 77.86 52.17V52.17Z" fill="#8BFF55"/>
<path d="M42.5 50.852C43.2379 50.852 43.836 50.2538 43.836 49.516C43.836 48.7781 43.2379 48.18 42.5 48.18C41.7621 48.18 41.164 48.7781 41.164 49.516C41.164 50.2538 41.7621 50.852 42.5 50.852Z" fill="#8BFF55"/>
<path d="M87.5 50.852C88.2379 50.852 88.836 50.2538 88.836 49.516C88.836 48.7781 88.2379 48.18 87.5 48.18C86.7621 48.18 86.164 48.7781 86.164 49.516C86.164 50.2538 86.7621 50.852 87.5 50.852Z" fill="#8BFF55"/>
</g>
<defs>
<clipPath id="clip0_11_27">
<rect width="128" height="128" fill="white"/>
</clipPath>
</defs>
</svg>
